<svg viewBox="0 0 52 52" fill="none" xmlns="http://www.w3.org/2000/svg">
<circle cx="26" cy="26" r="25" fill="white"/>
<path d="M26 52C40.352 52 52 40.352 52 26C52 11.648 40.352 0 26 0C11.648 0 0 11.648 0 26C0 40.352 11.648 52 26 52ZM36.556 38.2547V38.2568C34.8075 38.2568 29.2847 32.1295 13.7627 35.3102C13.3532 35.4163 12.818 35.5832 12.5147 35.5832C10.5322 35.5832 10.153 32.617 12.285 32.1642C20.8715 30.2683 29.6465 30.4352 37.1302 34.9115C38.9155 36.0512 38.1572 38.2547 36.556 38.2547V38.2547ZM39.3792 31.3798C39.1343 31.3148 39.2058 31.5293 38.0857 30.94C31.5315 27.0617 21.7642 25.4973 13.0715 27.8568C12.5688 27.9933 12.2958 28.1298 11.8235 28.1298C9.503 28.1298 8.88767 24.6393 11.4162 23.9265C21.6342 21.0557 32.5953 22.7305 40.2263 27.2697C41.0757 27.7723 41.4115 28.4245 41.4115 29.3345C41.4007 30.4655 40.521 31.3798 39.3792 31.3798V31.3798ZM9.854 15.1623C19.6538 12.2937 34.4847 13.1993 43.706 18.5813C46.0698 19.9442 45.1403 23.3913 42.627 23.3913L42.6248 23.3892C42.0788 23.3892 41.743 23.2527 41.2707 22.9797C33.8108 18.525 20.462 17.4568 11.8257 19.8683C11.4465 19.9723 10.9742 20.1392 10.4715 20.1392C9.087 20.1392 8.02967 19.058 8.02967 17.6648C8.02967 16.2413 8.9115 15.4353 9.854 15.1623V15.1623Z" fill="black"/>
</svg>
